<svg xmlns="http://www.w3.org/2000/svg" viewBox="0 0 512 512" role="img" aria-label="Cleaning Coach icon">
  <rect width="512" height="512" rx="112" fill="#7c3aed"/>
  <path fill="#fff" d="M141 329c68-16 120-68 136-136 3-14 23-14 26 0 16 68 68 120 136 136 14 3 14 23 0 26-68 16-120 68-136 136-3 14-23 14-26 0-16-68-68-120-136-136-14-3-14-23 0-26Z" opacity=".92"/>
  <path fill="#5eead4" d="M88 119c36-9 64-37 73-73 2-8 13-8 15 0 9 36 37 64 73 73 8 2 8 13 0 15-36 9-64 37-73 73-2 8-13 8-15 0-9-36-37-64-73-73-8-2-8-13 0-15Z"/>
</svg>
